<svg width="24" height="24" viewBox="0 0 24 24" fill="none" xmlns="http://www.w3.org/2000/svg">
<path d="M16 12C16 13.0609 15.5786 14.0783 14.8284 14.8284C14.0783 15.5786 13.0609 16 12 16C10.9391 16 9.92172 15.5786 9.17157 14.8284C8.42143 14.0783 8 13.0609 8 12C8 10.9391 8.42143 9.92172 9.17157 9.17157C9.92172 8.42143 10.9391 8 12 8C13.0609 8 14.0783 8.42143 14.8284 9.17157C15.5786 9.92172 16 10.9391 16 12ZM14.5 12C14.5 11.337 14.2366 10.7011 13.7678 10.2322C13.2989 9.76339 12.663 9.5 12 9.5C11.337 9.5 10.7011 9.76339 10.2322 10.2322C9.76339 10.7011 9.5 11.337 9.5 12C9.5 12.663 9.76339 13.2989 10.2322 13.7678C10.7011 14.2366 11.337 14.5 12 14.5C12.663 14.5 13.2989 14.2366 13.7678 13.7678C14.2366 13.2989 14.5 12.663 14.5 12Z" fill="#FF5733"/>
<path d="M12.0006 3C12.2188 3 12.4361 3.00764 12.6527 3.02291C13.2769 3.06791 13.7531 3.52774 13.8897 4.08984L14.1777 5.27623C14.1933 5.34005 14.2514 5.41615 14.3618 5.45706C14.5636 5.53015 14.7622 5.61251 14.9574 5.70415C15.0638 5.75406 15.1587 5.74015 15.2152 5.70579L16.2583 5.07087C16.7517 4.76977 17.4127 4.78204 17.8865 5.19114C18.2159 5.47697 18.5235 5.78488 18.8094 6.11489C19.2193 6.58781 19.2307 7.24891 18.9296 7.74311L18.2947 8.7855C18.2604 8.84195 18.2473 8.93686 18.2964 9.04323C18.388 9.23796 18.4706 9.43651 18.5443 9.63888C18.5835 9.74934 18.6605 9.80661 18.7243 9.82297L19.9106 10.111C20.4727 10.2476 20.9325 10.7238 20.9767 11.3481C21.0078 11.7828 21.0078 12.2176 20.9767 12.6523C20.9325 13.2766 20.4727 13.7528 19.9106 13.8894L18.7243 14.1774C18.6605 14.193 18.5844 14.2511 18.5435 14.3615C18.4704 14.5644 18.388 14.763 18.2964 14.9572C18.2465 15.0635 18.2604 15.1585 18.2947 15.2149L18.9296 16.2581C19.2307 16.7515 19.2184 17.4126 18.8094 17.8863C18.5235 18.2163 18.2156 18.524 17.8856 18.8093C17.4127 19.2192 16.7517 19.2306 16.2575 18.9295L15.2152 18.2946C15.1587 18.2603 15.0638 18.2472 14.9582 18.2963C14.7632 18.3876 14.5641 18.4703 14.3618 18.5442C14.2514 18.5834 14.1941 18.6604 14.1777 18.7242L13.8897 19.9106C13.7531 20.4727 13.2769 20.9325 12.6527 20.9767C12.2179 21.0078 11.7832 21.0078 11.3485 20.9767C10.7242 20.9325 10.2481 20.4727 10.1114 19.9106L9.82344 18.7242C9.80789 18.6604 9.7498 18.5843 9.63935 18.5434C9.43687 18.4708 9.23808 18.3884 9.04372 18.2963C8.93736 18.2463 8.84245 18.2603 8.786 18.2946L7.74284 18.9295C7.24948 19.2306 6.58841 19.2184 6.11469 18.8093C5.78469 18.5234 5.47706 18.2155 5.1918 17.8855C4.78189 17.4126 4.77044 16.7515 5.07152 16.2573L5.70642 15.2149C5.74079 15.1585 5.75388 15.0635 5.70479 14.958C5.61347 14.7629 5.53075 14.5639 5.45688 14.3615C5.41761 14.2511 5.3407 14.1938 5.27688 14.1774L4.09054 13.8894C3.52846 13.7528 3.06865 13.2766 3.02365 12.6523C2.99212 12.2181 2.99212 11.7823 3.02365 11.3481C3.06865 10.7238 3.52846 10.2476 4.09054 10.111L5.27688 9.82297C5.3407 9.80743 5.41679 9.74934 5.4577 9.63888C5.53079 9.43596 5.61315 9.23741 5.70479 9.04323C5.75469 8.93686 5.74079 8.84195 5.70642 8.7855L5.07152 7.74229C4.77044 7.24891 4.78271 6.58781 5.1918 6.11407C5.47761 5.78406 5.78551 5.47642 6.11551 5.19114C6.58841 4.78122 7.24948 4.76977 7.74366 5.07087L8.786 5.70579C8.84245 5.74015 8.93736 5.75324 9.04372 5.70415C9.23845 5.61251 9.43699 5.52988 9.63935 5.45624C9.7498 5.41696 9.80707 5.34005 9.82344 5.27623L10.1114 4.08984C10.2481 3.52774 10.7242 3.06791 11.3485 3.02291C11.5639 3.00764 11.7813 3 12.0006 3ZM11.436 4.24776C11.391 4.25103 11.3256 4.28867 11.3043 4.37949L11.0155 5.56588C10.9545 5.80572 10.8349 6.02669 10.6676 6.20903C10.5003 6.39136 10.2903 6.52938 10.0566 6.61072C9.88991 6.671 9.72611 6.73898 9.56571 6.81445C9.3427 6.92257 9.09634 6.97364 8.84873 6.96307C8.60112 6.9525 8.36 6.88063 8.14701 6.7539L7.10467 6.11898C7.02449 6.06989 6.95249 6.08952 6.91813 6.11898C6.63388 6.36646 6.36706 6.63328 6.1196 6.91754C6.09014 6.95191 6.07051 7.02473 6.1196 7.10409L6.75449 8.14648C7.0114 8.57931 7.03431 9.11196 6.81504 9.56524C6.73957 9.72564 6.67159 9.88946 6.61131 10.0562C6.53001 10.2901 6.39193 10.5003 6.20945 10.6678C6.02696 10.8353 5.80577 10.9549 5.5657 11.0159L4.37936 11.3031C4.28936 11.3252 4.25172 11.3906 4.24845 11.4356C4.22245 11.8116 4.22245 12.1888 4.24845 12.5648C4.25172 12.6098 4.28936 12.6752 4.38017 12.6965L5.56652 12.9853C5.80635 13.0464 6.02731 13.1659 6.20964 13.3332C6.39197 13.5006 6.52998 13.7105 6.61131 13.9442C6.67186 14.1112 6.73977 14.2748 6.81504 14.4352C7.03431 14.8876 7.0114 15.4203 6.75449 15.8531L6.1196 16.8963C6.07051 16.9765 6.09014 17.0485 6.1196 17.0829C6.36668 17.3681 6.63286 17.6343 6.91813 17.8814C6.95249 17.9109 7.02531 17.9305 7.10467 17.8814L8.14701 17.2465C8.35993 17.1197 8.60101 17.0476 8.84863 17.0369C9.09624 17.0262 9.34263 17.0771 9.56571 17.1851C9.72607 17.2615 9.88971 17.3297 10.0566 17.3897C10.2906 17.471 10.5007 17.6091 10.6682 17.7916C10.8357 17.9741 10.9553 18.1953 11.0163 18.4354L11.3035 19.6217C11.3256 19.7117 11.391 19.7494 11.436 19.7527C11.8119 19.7787 12.1892 19.7787 12.5651 19.7527C12.6101 19.7494 12.6756 19.7117 12.6968 19.6209L12.9856 18.4345C13.0466 18.1945 13.166 17.9734 13.3334 17.7909C13.5007 17.6084 13.7107 17.4703 13.9445 17.3889C14.1112 17.3289 14.275 17.2612 14.4354 17.186C14.6583 17.078 14.9046 17.027 15.152 17.0376C15.3995 17.0481 15.6404 17.1199 15.8533 17.2465L16.8965 17.8814C16.9767 17.9305 17.0487 17.9109 17.083 17.8814C17.3683 17.6343 17.6345 17.3681 17.8816 17.0829C17.911 17.0485 17.9306 16.9757 17.8816 16.8963L17.2467 15.8531C17.12 15.6403 17.048 15.3993 17.0373 15.1519C17.0266 14.9044 17.0774 14.6582 17.1853 14.4352C17.2617 14.2748 17.3298 14.1112 17.3898 13.9442C17.4711 13.7103 17.6092 13.5001 17.7917 13.3326C17.9742 13.1651 18.1954 13.0455 18.4355 12.9845L19.6218 12.6973C19.7118 12.6752 19.7494 12.6098 19.7527 12.5648C19.7787 12.1888 19.7787 11.8116 19.7527 11.4356C19.7494 11.3906 19.7118 11.3252 19.621 11.3039L18.4346 11.0151C17.9225 10.8907 17.551 10.5037 17.389 10.0562C17.329 9.88947 17.2613 9.72565 17.1861 9.56524C17.078 9.34222 17.0269 9.09585 17.0375 8.84823C17.0481 8.60061 17.1199 8.35948 17.2467 8.14648L17.8816 7.10409C17.9306 7.02391 17.911 6.95191 17.8816 6.91754C17.6341 6.63328 17.3673 6.36646 17.083 6.11898C17.0487 6.08952 16.9758 6.06989 16.8965 6.11898L15.8533 6.7539C15.6404 6.88049 15.3995 6.95228 15.152 6.96285C14.9046 6.97341 14.6583 6.92243 14.4354 6.81445C14.275 6.73898 14.1112 6.671 13.9445 6.61072C13.7109 6.52877 13.5011 6.39048 13.3337 6.20809C13.1663 6.02569 13.0465 5.80483 12.9848 5.56506L12.6977 4.37867C12.6756 4.28867 12.6101 4.25103 12.5651 4.24776C12.1892 4.22176 11.8119 4.22176 11.436 4.24776Z" fill="#FF5733"/>
</svg>
