<svg width="24" height="24" viewBox="0 0 24 24" fill="none" xmlns="http://www.w3.org/2000/svg">
<path d="M17.252 12.49C16.968 14.855 15.419 15.8 14.75 16.486C14.08 17.174 14.2 17.311 14.245 18.32C14.2525 18.4449 14.2344 18.5699 14.1917 18.6875C14.1491 18.805 14.0828 18.9126 13.997 19.0036C13.9111 19.0946 13.8076 19.167 13.6927 19.2164C13.5779 19.2659 13.4541 19.2912 13.329 19.291H10.671C10.5459 19.2911 10.4222 19.2656 10.3073 19.2161C10.1925 19.1667 10.0889 19.0942 10.0031 19.0033C9.91719 18.9124 9.85081 18.8049 9.80798 18.6874C9.76515 18.5699 9.74679 18.4449 9.75401 18.32C9.75401 17.33 9.84601 17.1 9.25001 16.486C8.49001 15.726 6.70201 14.653 6.70201 11.702C6.69744 10.969 6.84478 10.243 7.13472 9.56978C7.42466 8.89655 7.85093 8.29068 8.38665 7.79037C8.92238 7.29005 9.55593 6.90615 10.2474 6.66284C10.9389 6.41954 11.6732 6.32211 12.4042 6.37671C13.1352 6.43131 13.8469 6.63675 14.4946 6.98007C15.1422 7.32339 15.7117 7.79716 16.1671 8.37151C16.6226 8.94585 16.9541 9.60833 17.1408 10.3172C17.3276 11.026 17.3654 11.7658 17.252 12.49Z" stroke="#FF5733" stroke-width="1.5" stroke-linecap="round" stroke-linejoin="round"/>
<path d="M10.46 19.236V20.748C10.46 21.161 10.69 21.5 10.973 21.5H13.026C13.311 21.5 13.54 21.16 13.54 20.748V19.236M11.22 8.69601C10.6296 8.69628 10.0634 8.93103 9.64594 9.34864C9.22851 9.76626 8.99402 10.3326 8.99402 10.923M19.332 11.904H21.166M17.486 5.89201L18.787 4.59101M18.486 17L19.787 18.3M12 2.37701V3.86001M5.24002 4.59001L6.53202 5.89201M4.24002 18.3L5.53202 17M4.66802 11.904H2.83502" stroke="#FF5733" stroke-width="1.5" stroke-linecap="round" stroke-linejoin="round"/>
</svg>
