<svg width="116" height="50" viewBox="0 0 116 50" fill="none" xmlns="http://www.w3.org/2000/svg">
<path d="M0 13.794C0 12.2761 0.276436 10.9434 0.829309 9.79613C1.39946 8.64884 2.1683 7.76631 3.13583 7.14853C4.10335 6.53076 5.18318 6.22187 6.37531 6.22187C7.32556 6.22187 8.18943 6.42485 8.9669 6.83082C9.76166 7.23678 10.3836 7.78396 10.8329 8.47233V1.61504H15.2645V21.2073H10.8329V19.0892C10.4182 19.7953 9.82213 20.3601 9.04465 20.7837C8.28445 21.2073 7.39467 21.4191 6.37531 21.4191C5.18318 21.4191 4.10335 21.1102 3.13583 20.4925C2.1683 19.857 1.39946 18.9657 0.829309 17.8184C0.276436 16.6534 0 15.312 0 13.794ZM10.8329 13.8205C10.8329 12.6908 10.5219 11.7995 9.89988 11.1464C9.29517 10.4933 8.55225 10.1668 7.67111 10.1668C6.78997 10.1668 6.03841 10.4933 5.41643 11.1464C4.81172 11.7818 4.50937 12.6644 4.50937 13.794C4.50937 14.9237 4.81172 15.8238 5.41643 16.4946C6.03841 17.1476 6.78997 17.4742 7.67111 17.4742C8.55225 17.4742 9.29517 17.1476 9.89988 16.4946C10.5219 15.8415 10.8329 14.9501 10.8329 13.8205Z" fill="white"/>
<path d="M21.114 4.89807C20.3365 4.89807 19.6972 4.66861 19.1962 4.20969C18.7124 3.73312 18.4706 3.15065 18.4706 2.46227C18.4706 1.75624 18.7124 1.17377 19.1962 0.714853C19.6972 0.238284 20.3365 0 21.114 0C21.8742 0 22.4962 0.238284 22.9799 0.714853C23.481 1.17377 23.7315 1.75624 23.7315 2.46227C23.7315 3.15065 23.481 3.73312 22.9799 4.20969C22.4962 4.66861 21.8742 4.89807 21.114 4.89807ZM23.3168 6.43368V21.2073H18.8852V6.43368H23.3168Z" fill="white"/>
<path d="M31.6079 6.22187C32.6273 6.22187 33.517 6.43368 34.2772 6.85729C35.0547 7.28091 35.6508 7.83691 36.0654 8.52528V6.43368H40.497V21.1808C40.497 22.5399 40.2292 23.7667 39.6937 24.861C39.1753 25.973 38.3719 26.8555 37.2835 27.5086C36.2123 28.1617 34.8733 28.4882 33.2665 28.4882C31.1241 28.4882 29.3878 27.9675 28.0574 26.9261C26.7271 25.9024 25.9669 24.508 25.7768 22.7429H30.1566C30.2948 23.3077 30.6231 23.749 31.1414 24.0667C31.6597 24.4021 32.299 24.5698 33.0592 24.5698C33.9749 24.5698 34.7005 24.2962 35.2361 23.749C35.789 23.2195 36.0654 22.3634 36.0654 21.1808V19.0892C35.6335 19.7776 35.0374 20.3424 34.2772 20.7837C33.517 21.2073 32.6273 21.4191 31.6079 21.4191C30.4158 21.4191 29.3359 21.1102 28.3684 20.4925C27.4009 19.857 26.632 18.9657 26.0619 17.8184C25.509 16.6534 25.2326 15.312 25.2326 13.794C25.2326 12.2761 25.509 10.9434 26.0619 9.79613C26.632 8.64884 27.4009 7.76631 28.3684 7.14853C29.3359 6.53076 30.4158 6.22187 31.6079 6.22187ZM36.0654 13.8205C36.0654 12.6908 35.7544 11.7995 35.1325 11.1464C34.5278 10.4933 33.7848 10.1668 32.9037 10.1668C32.0225 10.1668 31.271 10.4933 30.649 11.1464C30.0443 11.7818 29.7419 12.6644 29.7419 13.794C29.7419 14.9237 30.0443 15.8238 30.649 16.4946C31.271 17.1476 32.0225 17.4742 32.9037 17.4742C33.7848 17.4742 34.5278 17.1476 35.1325 16.4946C35.7544 15.8415 36.0654 14.9501 36.0654 13.8205Z" fill="white"/>
<path d="M45.9319 4.89807C45.1544 4.89807 44.5152 4.66861 44.0141 4.20969C43.5304 3.73312 43.2885 3.15065 43.2885 2.46227C43.2885 1.75624 43.5304 1.17377 44.0141 0.714853C44.5152 0.238284 45.1544 0 45.9319 0C46.6921 0 47.3141 0.238284 47.7978 0.714853C48.2989 1.17377 48.5494 1.75624 48.5494 2.46227C48.5494 3.15065 48.2989 3.73312 47.7978 4.20969C47.3141 4.66861 46.6921 4.89807 45.9319 4.89807ZM48.1348 6.43368V21.2073H43.7031V6.43368H48.1348Z" fill="white"/>
<path d="M59.4061 17.3683V21.2073H57.1515C55.5447 21.2073 54.2921 20.8102 53.3937 20.0159C52.4952 19.204 52.046 17.889 52.046 16.071V10.1933H50.2837V6.43368H52.046V2.83294H56.4776V6.43368H59.3802V10.1933H56.4776V16.1239C56.4776 16.5652 56.5813 16.8829 56.7886 17.077C56.996 17.2712 57.3415 17.3683 57.8253 17.3683H59.4061Z" fill="white"/>
<path d="M60.9935 13.794C60.9935 12.2761 61.2699 10.9434 61.8228 9.79613C62.393 8.64884 63.1618 7.76631 64.1293 7.14853C65.0968 6.53076 66.1767 6.22187 67.3688 6.22187C68.3882 6.22187 69.2779 6.43368 70.0381 6.85729C70.8156 7.28091 71.4117 7.83691 71.8263 8.52528V6.43368H76.258V21.2073H71.8263V19.1157C71.3944 19.8041 70.7897 20.3601 70.0122 20.7837C69.252 21.2073 68.3622 21.4191 67.3429 21.4191C66.168 21.4191 65.0968 21.1102 64.1293 20.4925C63.1618 19.857 62.393 18.9657 61.8228 17.8184C61.2699 16.6534 60.9935 15.312 60.9935 13.794ZM71.8263 13.8205C71.8263 12.6908 71.5154 11.7995 70.8934 11.1464C70.2887 10.4933 69.5457 10.1668 68.6646 10.1668C67.7835 10.1668 67.0319 10.4933 66.4099 11.1464C65.8052 11.7818 65.5029 12.6644 65.5029 13.794C65.5029 14.9237 65.8052 15.8238 66.4099 16.4946C67.0319 17.1476 67.7835 17.4742 68.6646 17.4742C69.5457 17.4742 70.2887 17.1476 70.8934 16.4946C71.5154 15.8415 71.8263 14.9501 71.8263 13.8205Z" fill="white"/>
<path d="M83.8957 1.61504V21.2073H79.464V1.61504H83.8957Z" fill="white"/>
<path d="M47.6626 42.9309C46.4014 42.9309 45.2783 42.7103 44.2935 42.269C43.3087 41.8277 42.5312 41.2276 41.9611 40.4686C41.3909 39.692 41.0713 38.8271 41.0022 37.874H45.382C45.4338 38.3858 45.6671 38.8006 46.0817 39.1183C46.4964 39.4361 47.0061 39.5949 47.6108 39.5949C48.1636 39.5949 48.5869 39.489 48.8806 39.2772C49.1916 39.0477 49.3471 38.7565 49.3471 38.4035C49.3471 37.9799 49.1312 37.671 48.6992 37.4768C48.2673 37.265 47.5676 37.0356 46.6 36.7885C45.5634 36.5413 44.6995 36.2854 44.0085 36.0207C43.3174 35.7382 42.7213 35.3058 42.2203 34.7233C41.7192 34.1232 41.4687 33.3201 41.4687 32.314C41.4687 31.4668 41.6933 30.699 42.1425 30.0106C42.609 29.3046 43.2828 28.7486 44.1639 28.3426C45.0624 27.9366 46.1249 27.7337 47.3516 27.7337C49.1657 27.7337 50.5911 28.1926 51.6277 29.1104C52.6816 30.0282 53.2863 31.2461 53.4418 32.7641H49.3471C49.278 32.2522 49.0534 31.8463 48.6733 31.5462C48.3105 31.2461 47.8267 31.0961 47.222 31.0961C46.7037 31.0961 46.3063 31.202 46.0299 31.4138C45.7535 31.608 45.6152 31.8816 45.6152 32.2346C45.6152 32.6582 45.8312 32.9759 46.2631 33.1877C46.7123 33.3995 47.4034 33.6113 48.3364 33.8231C49.4076 34.1056 50.2801 34.388 50.9539 34.6704C51.6277 34.9351 52.2152 35.3764 52.7162 35.9942C53.2345 36.5943 53.5023 37.4062 53.5196 38.43C53.5196 39.2949 53.2777 40.0715 52.7939 40.7599C52.3275 41.4306 51.645 41.9601 50.7466 42.3484C49.8654 42.7367 48.8375 42.9309 47.6626 42.9309Z" fill="white"/>
<path d="M70.5105 27.9455V42.7191H66.0789V40.7069C65.6297 41.36 65.0163 41.8895 64.2389 42.2955C63.4787 42.6838 62.6321 42.8779 61.6991 42.8779C60.5933 42.8779 59.6172 42.6308 58.7706 42.1366C57.924 41.6247 57.2675 40.8922 56.801 39.9391C56.3345 38.986 56.1013 37.8651 56.1013 36.5766V27.9455H60.507V35.9677C60.507 36.9561 60.7575 37.7239 61.2585 38.2711C61.7596 38.8183 62.4334 39.0919 63.28 39.0919C64.1438 39.0919 64.8263 38.8183 65.3273 38.2711C65.8284 37.7239 66.0789 36.9561 66.0789 35.9677V27.9455H70.5105Z" fill="white"/>
<path d="M78.1253 30.4077C78.6436 29.5958 79.2915 28.9604 80.069 28.5015C80.8465 28.0249 81.7104 27.7866 82.6606 27.7866V32.5788H81.4426C80.3368 32.5788 79.5075 32.8259 78.9546 33.3201C78.4018 33.7967 78.1253 34.6439 78.1253 35.8618V42.7191H73.6937V27.9455H78.1253V30.4077Z" fill="white"/>
<path d="M90.273 27.7337C91.2924 27.7337 92.1821 27.9455 92.9423 28.3691C93.7198 28.7927 94.3159 29.3487 94.7305 30.0371V27.9455H99.1622V42.6926C99.1622 44.0517 98.8944 45.2784 98.3588 46.3728C97.8404 47.4848 97.037 48.3673 95.9486 49.0204C94.8774 49.6735 93.5384 50 91.9316 50C89.7892 50 88.0529 49.4793 86.7225 48.4379C85.3922 47.4142 84.632 46.0198 84.4419 44.2547H88.8217C88.9599 44.8195 89.2882 45.2608 89.8065 45.5785C90.3248 45.9139 90.9641 46.0815 91.7243 46.0815C92.64 46.0815 93.3656 45.808 93.9012 45.2608C94.4541 44.7313 94.7305 43.8752 94.7305 42.6926V40.601C94.2986 41.2894 93.7025 41.8542 92.9423 42.2955C92.1821 42.7191 91.2924 42.9309 90.273 42.9309C89.0809 42.9309 88.001 42.622 87.0335 42.0042C86.066 41.3688 85.2971 40.4775 84.727 39.3302C84.1741 38.1652 83.8977 36.8238 83.8977 35.3058C83.8977 33.7878 84.1741 32.4552 84.727 31.3079C85.2971 30.1606 86.066 29.2781 87.0335 28.6603C88.001 28.0425 89.0809 27.7337 90.273 27.7337ZM94.7305 35.3323C94.7305 34.2026 94.4195 33.3113 93.7976 32.6582C93.1929 32.0051 92.4499 31.6786 91.5688 31.6786C90.6877 31.6786 89.9361 32.0051 89.3141 32.6582C88.7094 33.2936 88.4071 34.1762 88.4071 35.3058C88.4071 36.4354 88.7094 37.3356 89.3141 38.0064C89.9361 38.6594 90.6877 38.986 91.5688 38.986C92.4499 38.986 93.1929 38.6594 93.7976 38.0064C94.4195 37.3533 94.7305 36.4619 94.7305 35.3323Z" fill="white"/>
<path d="M116 35.094C116 35.5176 115.974 35.9589 115.922 36.4178H105.893C105.962 37.3356 106.247 38.0417 106.748 38.5359C107.266 39.0124 107.897 39.2507 108.64 39.2507C109.746 39.2507 110.514 38.7742 110.946 37.821H115.663C115.421 38.7918 114.981 39.6655 114.341 40.4421C113.719 41.2188 112.933 41.8277 111.983 42.269C111.033 42.7103 109.97 42.9309 108.795 42.9309C107.379 42.9309 106.117 42.622 105.012 42.0042C103.906 41.3865 103.042 40.5039 102.42 39.3566C101.798 38.2093 101.487 36.8679 101.487 35.3323C101.487 33.7967 101.789 32.4552 102.394 31.3079C103.016 30.1606 103.88 29.2781 104.986 28.6603C106.091 28.0425 107.361 27.7337 108.795 27.7337C110.195 27.7337 111.439 28.0337 112.527 28.6338C113.616 29.234 114.462 30.09 115.067 31.202C115.689 32.314 116 33.6113 116 35.094ZM111.465 33.9026C111.465 33.1259 111.206 32.5082 110.687 32.0492C110.169 31.5903 109.521 31.3609 108.744 31.3609C108.001 31.3609 107.37 31.5815 106.852 32.0228C106.351 32.464 106.04 33.0906 105.919 33.9026H111.465Z" fill="white"/>
</svg>
